<svg id="bold" enable-background="new 0 0 32 32" height="512" viewBox="0 0 32 32" width="512" xmlns="http://www.w3.org/2000/svg"><path d="m26 32h-20c-3.314 0-6-2.686-6-6v-20c0-3.314 2.686-6 6-6h20c3.314 0 6 2.686 6 6v20c0 3.314-2.686 6-6 6z" fill="#ffe6e2"/><path d="m17.5 8h-7.667c-1.013 0-1.833.82-1.833 1.833v10.333c0 1.014.82 1.834 1.833 1.834h4.393c-.36-.76-.56-1.607-.56-2.5 0-.767.147-1.5.42-2.173-.027.007-.053.007-.087.007h-3.333c-.367 0-.667-.3-.667-.667s.301-.667.668-.667h3.333c.253 0 .48.147.587.36.433-.673.993-1.247 1.653-1.693h-5.573c-.367 0-.667-.3-.667-.667s.3-.667.667-.667h6c.367 0 .667.3.667.667 0 .033 0 .06-.007.087.62-.253 1.3-.4 2.007-.413v-3.84c-.001-1.014-.821-1.834-1.834-1.834zm-4.167 4h-2.667c-.366 0-.666-.3-.666-.667s.3-.667.667-.667h2.667c.367 0 .667.3.667.667s-.301.667-.668.667z" fill="#fc573b"/><path d="m19.5 15c-2.481 0-4.5 2.019-4.5 4.5s2.019 4.5 4.5 4.5 4.5-2.019 4.5-4.5-2.019-4.5-4.5-4.5zm1.833 5.167h-1.167v1.167c0 .368-.299.667-.667.667s-.667-.299-.667-.667v-1.167h-1.167c-.366 0-.665-.299-.665-.667s.299-.667.667-.667h1.167v-1.167c0-.368.299-.667.667-.667s.667.299.667.667v1.167h1.167c.368 0 .667.299.667.667s-.3.667-.669.667z" fill="#fd907e"/></svg>