<?xml version="1.0"?>
<svg xmlns="http://www.w3.org/2000/svg" xmlns:xlink="http://www.w3.org/1999/xlink" xmlns:svgjs="http://svgjs.com/svgjs" version="1.1" width="116" height="116" x="0" y="0" viewBox="0 0 64 64" style="enable-background:new 0 0 512 512" xml:space="preserve" class=""><g><g xmlns="http://www.w3.org/2000/svg" fill="#00cec8"><path d="m42.456 38.444h2v10.024h-2z" transform="matrix(.707 -.707 .707 .707 -18 43.456)" fill="#00cec8" data-original="#00cec8" style="" class=""/><path d="m19.414 15.07h2v10.688h-2z" transform="matrix(.707 -.707 .707 .707 -8.456 20.414)" fill="#00cec8" data-original="#00cec8" style="" class=""/><path d="m8.643 35.571h12.757v2h-12.757z" transform="matrix(.966 -.26 .26 .966 -8.983 5.157)" fill="#00cec8" data-original="#00cec8" style="" class=""/><path d="m21.024 44.693h8.258v2h-8.258z" transform="matrix(.447 -.894 .894 .447 -26.965 47.756)" fill="#00cec8" data-original="#00cec8" style="" class=""/><path d="m42.934 30.334h14.111v2h-14.111z" transform="matrix(.999 -.037 .037 .999 -1.128 1.876)" fill="#00cec8" data-original="#00cec8" style="" class=""/><path d="m35.494 17.898h7.424v2h-7.424z" transform="matrix(.482 -.876 .876 .482 3.75 44.139)" fill="#00cec8" data-original="#00cec8" style="" class=""/></g><circle xmlns="http://www.w3.org/2000/svg" cx="53" cy="53" fill="#c9b0e7" r="9" data-original="#18efe4" style="" class=""/><path xmlns="http://www.w3.org/2000/svg" d="m53 44a8.973 8.973 0 0 0 -6.334 2.608 9 9 0 0 0 14.668 9.784 9 9 0 0 0 -8.334-12.392z" fill="#d5dfe5" data-original="#99fff7" style="" class=""/><circle xmlns="http://www.w3.org/2000/svg" cx="53" cy="50" fill="#d7e6f0" r="3" data-original="#f8ae48" style="" class=""/><path xmlns="http://www.w3.org/2000/svg" d="m48 58h10a5 5 0 0 0 -5-5 5 5 0 0 0 -5 5z" fill="#d7e6f0" data-original="#df9743" style="" class=""/><circle xmlns="http://www.w3.org/2000/svg" cx="32" cy="32" fill="#c9b0e7" r="12" data-original="#18efe4" style="" class=""/><path xmlns="http://www.w3.org/2000/svg" d="m32 20a11.93 11.93 0 0 0 -7.419 2.581 11.988 11.988 0 0 0 16.838 16.838 11.988 11.988 0 0 0 -9.419-19.419z" fill="#d5dfe5" data-original="#99fff7" style="" class=""/><circle xmlns="http://www.w3.org/2000/svg" cx="32" cy="28" fill="#d7e6f0" r="4" data-original="#f96c4b" style="" class=""/><path xmlns="http://www.w3.org/2000/svg" d="m26 39h12a6 6 0 0 0 -6-6 6 6 0 0 0 -6 6z" fill="#a5c3dc" data-original="#ce4c32" style="" class=""/><circle xmlns="http://www.w3.org/2000/svg" cx="11" cy="11" fill="#c9b0e7" r="9" data-original="#18efe4" style="" class=""/><path xmlns="http://www.w3.org/2000/svg" d="m11 2a8.973 8.973 0 0 0 -6.334 2.608 9 9 0 0 0 14.668 9.784 9 9 0 0 0 -8.334-12.392z" fill="#d5dfe5" data-original="#99fff7" style="" class=""/><circle xmlns="http://www.w3.org/2000/svg" cx="11" cy="8" fill="#d7e6f0" r="3" data-original="#f8ae48" style="" class=""/><path xmlns="http://www.w3.org/2000/svg" d="m6 16h10a5 5 0 0 0 -5-5 5 5 0 0 0 -5 5z" fill="#d7e6f0" data-original="#df9743" style="" class=""/><circle xmlns="http://www.w3.org/2000/svg" cx="43" cy="12" fill="#a5c3dc" r="5" data-original="#ce4c32" style="" class=""/><circle xmlns="http://www.w3.org/2000/svg" cx="21" cy="54" fill="#a5c3dc" r="6" data-original="#ce4c32" style="" class=""/><circle xmlns="http://www.w3.org/2000/svg" cx="6" cy="39" fill="#a5c3dc" r="4" data-original="#ce4c32" style="" class=""/><circle xmlns="http://www.w3.org/2000/svg" cx="59" cy="31" fill="#a5c3dc" r="3" data-original="#ce4c32" style="" class=""/><path xmlns="http://www.w3.org/2000/svg" d="m44.974 32.52 10.212-.378a3.972 3.972 0 1 0 -.089-2l-10.188.377a13 13 0 0 0 -5.792-9.387l1.911-3.474a6.008 6.008 0 1 0 -1.752-.964l-1.912 3.476a12.909 12.909 0 0 0 -13.811 1.966l-4.814-4.814a10.016 10.016 0 1 0 -1.414 1.414l4.814 4.814a12.858 12.858 0 0 0 -2.907 10.85l-8.783 2.364a4.961 4.961 0 1 0 .551 2.236c0-.1-.024-.2-.031-.3l8.789-2.366a13.052 13.052 0 0 0 5.559 6.8l-2.117 4.226a7.015 7.015 0 1 0 1.788.9l2.112-4.226a12.926 12.926 0 0 0 13.347-2.173l4.814 4.814a10.013 10.013 0 1 0 1.414-1.414l-4.814-4.814a12.933 12.933 0 0 0 3.113-7.927zm14.026-3.52a2 2 0 1 1 -2 2 2 2 0 0 1 2-2zm-16-21a4 4 0 1 1 -4 4 4 4 0 0 1 4-4zm-37 34a3 3 0 1 1 3-3 3 3 0 0 1 -3 3zm20 12a5 5 0 1 1 -5-5 5.006 5.006 0 0 1 5 5zm-23-43a8 8 0 1 1 13.927 5.354.977.977 0 0 0 .073-.354 5.958 5.958 0 0 0 -1.756-4.243 6.031 6.031 0 0 0 -1.344-1.012 4 4 0 1 0 -5.789 0 6 6 0 0 0 -3.111 5.255 1 1 0 0 0 .07.351 7.961 7.961 0 0 1 -2.07-5.351zm8-1a2 2 0 1 1 2-2 2 2 0 0 1 -2 2zm0 2a4 4 0 0 1 3.873 3h-7.747a4.007 4.007 0 0 1 3.874-3zm-5.35 4.93a.988.988 0 0 0 .35.07h10a.978.978 0 0 0 .355-.072 7.95 7.95 0 0 1 -10.7 0zm15.35 15.07a11 11 0 1 1 11 11 11.013 11.013 0 0 1 -11-11zm26.65 26.93a.988.988 0 0 0 .35.07h10a.978.978 0 0 0 .355-.072 7.95 7.95 0 0 1 -10.7 0zm5.35-6.93a2 2 0 1 1 2-2 2 2 0 0 1 -2 2zm0 2a4 4 0 0 1 3.873 3h-7.747a4.007 4.007 0 0 1 3.874-3zm0-9a7.986 7.986 0 0 1 5.927 13.354.977.977 0 0 0 .073-.354 5.958 5.958 0 0 0 -1.756-4.243 6.031 6.031 0 0 0 -1.344-1.012 4 4 0 1 0 -5.789 0 6 6 0 0 0 -3.111 5.255 1 1 0 0 0 .07.351 7.986 7.986 0 0 1 5.93-13.351z" fill="#4b55a5" data-original="#000000" style="" class=""/><path xmlns="http://www.w3.org/2000/svg" d="m34.319 32.4a5 5 0 1 0 -4.638 0 7.007 7.007 0 0 0 -4.681 6.6 1 1 0 0 0 1 1h12a1 1 0 0 0 1-1 7.007 7.007 0 0 0 -4.681-6.6zm-2.319-7.4a3 3 0 1 1 -3 3 3 3 0 0 1 3-3zm-4.9 13a5 5 0 0 1 9.8 0z" fill="#4b55a5" data-original="#000000" style="" class=""/></g></svg>
