<svg id="contact-email-icon" width="23" height="18" viewBox="0 0 27 20" fill="none" xmlns="http://www.w3.org/2000/svg" aria-hidden="true"><path d="M0 2.499v15.002A2.5 2.5 0 002.495 20h21.648a2.503 2.503 0 002.499-2.499V2.499A2.503 2.503 0 0024.142 0H2.496A2.499 2.499 0 000 2.499zm24.15 0v2.116c-1.17.95-3.03 2.43-7.004 5.541-.879.691-2.617 2.343-3.823 2.343-1.207 0-2.944-1.636-3.819-2.343-3.979-3.124-5.857-4.592-7.028-5.54V2.49L24.15 2.5zM2.496 17.501V7.829a732.25 732.25 0 005.467 4.295c1.171.922 3.143 2.87 5.365 2.858 2.222-.011 4.229-1.952 5.365-2.858 2.577-2.019 4.268-3.354 5.466-4.295v9.672H2.495z" fill="#b52b65"></path>
        </svg>