 <svg id="grow-blob" width="747" height="500"  viewBox="0 0 898 500" fill="none" xmlns="http://www.w3.org/2000/svg" aria-hidden="true">
          <path opacity=".1" d="M521.365 82.432c-57.524-1.67-112.319-17.128-164.633-34.047-52.315-16.92-104.148-35.645-160.299-44.61-36.118-5.763-77.413-6.581-106.516 9.543-27.995 15.507-37.049 42.29-41.913 67.131-3.66 18.693-5.81 38.374 4.214 55.871 6.967 12.151 19.327 22.361 27.875 33.999 29.753 40.5 8.724 90.431-23.517 129.968-15.121 18.548-32.658 36.246-44.328 55.99-11.67 19.745-17.056 42.387-6.855 62.508 10.121 19.961 34.232 34.954 60.357 45.501 53.053 21.422 115.577 27.554 176.576 31.021 134.912 7.697 270.555 4.358 405.901 1.027 50.075-1.228 100.327-2.48 149.632-8.925 27.353-3.58 55.597-9.262 75.446-22.979 25.218-17.417 31.463-46.897 14.567-68.736-28.332-36.624-106.684-45.749-126.492-85.022-10.9-21.63.297-45.749 16.14-65.814 33.983-43.037 90.953-80.8 93.955-130.024 2.063-33.79-25.323-67.63-67.669-83.617-44.385-16.759-105.945-14.648-138.684 13.09-33.71 28.606-92.96 39.594-143.757 38.125z" fill="#6C63FF"></path>
        </svg>

