<?xml version="1.0" encoding="iso-8859-1"?>
<!-- Generator: Adobe Illustrator 19.0.0, SVG Export Plug-In . SVG Version: 6.00 Build 0)  -->
<svg version="1.1" id="Capa_1" xmlns="http://www.w3.org/2000/svg" xmlns:xlink="http://www.w3.org/1999/xlink" x="0px" y="0px"
	 viewBox="0 0 512 512" style="enable-background:new 0 0 512 512;" xml:space="preserve">
<g>
	<g>
		<path d="M332,0c-28.805,0-55.791,11.065-76,30.441C235.791,11.065,208.805,0,180,0C119.346,0,70,49.346,70,110s49.346,110,110,110
			c28.807,0,55.795-11.066,76.001-30.44C276.21,208.936,303.196,220,332,220c60.654,0,110-49.346,110-110S392.654,0,332,0z
			 M249.956,112.497C248.643,149.753,218.158,180,180,180c-38.598,0-70-31.402-70-70c0-38.598,31.402-70,70-70
			C219.952,40,251.345,73.115,249.956,112.497z M332,180c-20.271,0-39.133-8.604-52.309-23.463
			c6.489-13.879,9.788-28.604,10.246-42.982c0.563-17.599-3.097-34.801-10.246-50.092C292.867,48.604,311.729,40,332,40
			c38.598,0,70,31.402,70,70C402,148.598,370.598,180,332,180z"/>
	</g>
</g>
<g>
	<g>
		<path d="M465.53,295.281C431.441,257.607,382.771,236,332,236c-26.274,0-52.333,5.789-76,16.804
			C232.333,241.789,206.274,236,180,236c-50.771,0-99.441,21.607-133.535,59.287C16.501,328.426,0,371.296,0,416v76
			c0,11.046,8.954,20,20,20c7.829,0,465.162,0,472,0c11.046,0,20-8.954,20-20v-76C512,371.296,495.499,328.426,465.53,295.281z
			 M320,472H40v-56c0-34.772,12.833-68.115,36.13-93.881C102.65,292.81,140.51,276,180,276c77.33,0,140,62.674,140,140V472z
			 M472,472H360v-56c0-52.187-22.499-101.571-61.889-135.847C309.153,277.409,320.548,276,332,276
			c39.49,0,77.35,16.81,103.865,46.114C459.167,347.885,472,381.228,472,416V472z"/>
	</g>
</g>
<g>
</g>
<g>
</g>
<g>
</g>
<g>
</g>
<g>
</g>
<g>
</g>
<g>
</g>
<g>
</g>
<g>
</g>
<g>
</g>
<g>
</g>
<g>
</g>
<g>
</g>
<g>
</g>
<g>
</g>
</svg>
