<?xml version="1.0" encoding="iso-8859-1"?>
<!-- Generator: Adobe Illustrator 16.0.0, SVG Export Plug-In . SVG Version: 6.00 Build 0)  -->
<!DOCTYPE svg PUBLIC "-//W3C//DTD SVG 1.1//EN" "http://www.w3.org/Graphics/SVG/1.1/DTD/svg11.dtd">
<svg version="1.1" id="Capa_1" xmlns="http://www.w3.org/2000/svg" xmlns:xlink="http://www.w3.org/1999/xlink" x="0px" y="0px"
	 width="30.5px" height="30.5px" viewBox="0 0 30.5 30.5" style="enable-background:new 0 0 30.5 30.5;" xml:space="preserve">
<g>
	<path d="M29.782,27.866l-0.844-5.109c-0.224-1.352-1.444-2.645-2.782-2.944l-6.258-1.4c0.887-1.086,1.591-2.407,2.091-3.731
		c0.811-0.295,1.626-1.019,1.861-1.959c0.312-1.248-0.018-2.364-0.792-2.851V8.988c0.708-2.131,1.075-5.614-2.137-7.492
		c-1.438-0.84-2.632-0.893-3.532-0.6c-0.142-0.365,0.277-0.895,0.277-0.895c-0.74-0.025-1.128,0.369-1.291,0.592
		c-0.988-0.455-2.281-0.65-3.938-0.303c-5.313,1.115-5.99,8.074-5.019,9.598c-0.758,0.49-1.081,1.594-0.77,2.83
		c0.236,0.945,1.057,1.672,1.871,1.963c0.484,1.305,1.167,2.602,2.03,3.678l-2.104,0.416l0,0H8.445l-3.892,0.771
		c-1.345,0.267-2.599,1.529-2.854,2.875l-0.97,5.086c-0.133,0.699,0.025,1.367,0.445,1.882c0.419,0.512,1.042,0.799,1.751,0.809
		L27.521,30.5h0.034c0.7,0,1.32-0.274,1.745-0.774C29.728,29.223,29.897,28.562,29.782,27.866z M14.756,22.272l-0.75,2.976
		l-4.81-5.603l2.142-0.424c0.875,0.84,1.897,1.44,3.057,1.643l-0.586,0.523L14.756,22.272z M16.463,25.292l-0.679-3.008l0.968-0.863
		l-0.604-0.563c1.116-0.207,2.104-0.787,2.961-1.597l2.208,0.494L16.463,25.292z M9.369,13.687
		c-0.431,0.092-1.427-0.451-1.625-1.238c-0.202-0.805-0.01-1.557,0.428-1.68c0.129-0.035,0.264-0.008,0.398,0.062V9.63
		c0.002-0.004,0.005-0.006,0.007-0.01C8.574,9.604,8.572,9.581,8.57,9.563V9.151c0.108-1.019,1.07-2.953,6.376-1.215
		c1.827,0.6,2.955-0.351,3.521-1.607c1.804,0.201,3.006,2.246,3.467,3.508v0.996c0.064-0.035,0.134-0.061,0.199-0.072
		c-0.002,0.008-0.001,0.025-0.004,0.031c0.016,0.016,0.041,0.006,0.076-0.027c0.042-0.002,0.085-0.008,0.126,0.004
		c0.438,0.123,0.629,0.875,0.427,1.68c-0.194,0.781-1.185,1.32-1.612,1.238c-0.471,1.428-1.318,3.178-2.502,4.443
		c-0.139,0.146-0.278,0.287-0.425,0.418c-0.158,0.146-0.324,0.277-0.494,0.402c-0.731,0.535-1.558,0.871-2.474,0.871
		c-0.936,0-1.772-0.338-2.509-0.877c-0.172-0.127-0.338-0.265-0.499-0.41c-0.147-0.135-0.289-0.277-0.426-0.426
		C10.661,16.856,9.834,15.134,9.369,13.687z M27.533,29.499l-4.802-0.059l0.032-2.632c0.003-0.274-0.22-0.502-0.494-0.507
		c-0.002,0-0.004,0-0.006,0c-0.273,0-0.497,0.223-0.5,0.494l-0.032,2.631L8.745,29.266l0.032-2.632
		c0.003-0.273-0.218-0.504-0.494-0.506c-0.002,0-0.004,0-0.006,0c-0.273,0-0.497,0.22-0.5,0.493l-0.032,2.632l-4.806-0.06
		c-0.409-0.006-0.76-0.162-0.989-0.44c-0.229-0.28-0.313-0.658-0.237-1.062l0.97-5.086c0.179-0.94,1.125-1.896,2.066-2.082
		l3.32-0.658l6.789,7.904c0.095,0.108,0.232,0.174,0.377,0.174c0,0,0.001,0,0.002,0c0.144,0,0.281-0.062,0.376-0.17l6.817-7.772
		l3.507,0.784c0.937,0.209,1.856,1.188,2.014,2.132l0.844,5.11c0.066,0.399-0.023,0.772-0.258,1.047
		c-0.229,0.271-0.581,0.422-0.983,0.422v0.498L27.533,29.499z"/>
</g>
<g>
</g>
<g>
</g>
<g>
</g>
<g>
</g>
<g>
</g>
<g>
</g>
<g>
</g>
<g>
</g>
<g>
</g>
<g>
</g>
<g>
</g>
<g>
</g>
<g>
</g>
<g>
</g>
<g>
</g>
</svg>
