<?xml version="1.0"?>
<svg xmlns="http://www.w3.org/2000/svg" xmlns:xlink="http://www.w3.org/1999/xlink" xmlns:svgjs="http://svgjs.com/svgjs" version="1.1" width="116" height="116" x="0" y="0" viewBox="0 0 64 64" style="enable-background:new 0 0 512 512" xml:space="preserve" class=""><g><g xmlns="http://www.w3.org/2000/svg"><path d="m2 6 10-4v18l-10 4z" fill="#4b55a5" data-original="#a1cdfb" style="" class=""/><path d="m62 6-10-4v18l10 4z" fill="#4b55a5" data-original="#a1cdfb" style="" class=""/><path d="m21 32v3l-4-3h-4c-1.105 0-2-.895-2-2v-4c0-1.105.895-2 2-2h10c1.105 0 2 .895 2 2v4c0 1.105-.895 2-2 2z" fill="#3f3d56" data-original="#669e4f" style="" class=""/><path d="m43 27v-3l4 3h4c1.105 0 2 .895 2 2v4c0 1.105-.895 2-2 2h-10c-1.105 0-2-.895-2-2v-4c0-1.105.895-2 2-2z" fill="#3f3d56" data-original="#669e4f" style="" class=""/><path d="m15 2h34v18h-34z" fill="#4b55a5" data-original="#c7e2fc" style="" class=""/><path d="m32 4c1.657 0 3 1.343 3 3v2c0 1.657-1.343 3-3 3-1.657 0-3-1.343-3-3v-2c0-1.657 1.343-3 3-3z" fill="#d7e6f0" data-original="#efbe9a" style="" class=""/><g fill="#3d98f7"><path d="m26 20v-4c0-1.105.895-2 2-2h8c1.105 0 2 .895 2 2v4" fill="#a5c3dc" data-original="#3d98f7" style="" class=""/><path d="m41 54v-4c0-3.314-2.686-6-6-6h-6c-3.314 0-6 2.686-6 6v4z" fill="#a5c3dc" data-original="#3d98f7" style="" class=""/><path d="m62 62v-4c0-3.314-2.686-6-6-6h-6c-3.314 0-6 2.686-6 6v4z" fill="#a5c3dc" data-original="#3d98f7" style="" class=""/><path d="m20 62v-4c0-3.314-2.686-6-6-6h-6c-3.314 0-6 2.686-6 6v4z" fill="#a5c3dc" data-original="#3d98f7" style="" class=""/></g><path d="m32 32c-2.761 0-5 2.239-5 5v2c0 2.761 2.239 5 5 5 2.761 0 5-2.239 5-5v-2c0-2.761-2.239-5-5-5z" fill="#d7e6f0" data-original="#efbe9a" style="" class=""/><path d="m53 40c-2.761 0-5 2.239-5 5v2c0 2.761 2.239 5 5 5 2.761 0 5-2.239 5-5v-2c0-2.761-2.239-5-5-5z" fill="#d7e6f0" data-original="#efbe9a" style="" class=""/><path d="m11 40c-2.761 0-5 2.239-5 5v2c0 2.761 2.239 5 5 5 2.761 0 5-2.239 5-5v-2c0-2.761-2.239-5-5-5z" fill="#d7e6f0" data-original="#efbe9a" style="" class=""/><g><path d="m14 27h2v2h-2z" fill="#ffffff" data-original="#ffffff" style=""/></g><g><path d="m17 27h2v2h-2z" fill="#ffffff" data-original="#ffffff" style=""/></g><g><path d="m20 27h2v2h-2z" fill="#ffffff" data-original="#ffffff" style=""/></g><g><path d="m48 30h2v2h-2z" fill="#ffffff" data-original="#ffffff" style=""/></g><g><path d="m45 30h2v2h-2z" fill="#ffffff" data-original="#ffffff" style=""/></g><g><path d="m42 30h2v2h-2z" fill="#ffffff" data-original="#ffffff" style=""/></g></g></g></svg>
