
<svg id="feedback" width="519" height="366" viewBox="0 0 519 366" fill="none" aria-hidden="true" xmlns="http://www.w3.org/2000/svg">
          <path opacity="0.1" d="M291.671 85.396C259.489 84.2809 228.836 73.8845 199.568 62.5196C170.301 51.1548 141.304 38.5592 109.895 32.5346C89.6904 28.6605 66.5847 28.1229 50.3072 38.9457C34.6383 49.3687 29.5782 67.3801 26.8594 84.0632C24.8113 96.6276 23.6074 109.832 29.2139 121.61C33.11 129.771 40.0271 136.636 44.8117 144.455C61.4491 171.672 49.6985 205.229 31.6529 231.798C23.212 244.264 13.3806 256.154 6.85453 269.424C0.328414 282.695 -2.69252 297.894 3.01616 311.427C8.68042 324.845 22.168 334.921 36.7796 342.008C66.4603 356.403 101.437 360.526 135.542 362.858C211.043 368.003 286.944 365.782 362.641 363.56C390.656 362.729 418.79 361.89 446.352 357.558C461.652 355.154 477.45 351.338 488.556 342.119C502.661 330.416 506.158 310.601 496.704 295.913C480.853 271.304 437.018 265.19 425.939 238.778C419.839 224.24 426.103 208.046 434.966 194.562C453.98 165.634 485.851 140.261 487.53 107.197C488.685 84.4897 473.363 61.7466 449.675 51.0037C424.841 39.741 390.411 41.1583 372.09 59.8006C353.236 78.9983 320.086 86.3823 291.671 85.396Z" fill="#6C63FF"></path>
          <path d="M114 343C113.378 343 112.749 342.99 112.132 342.971L112.146 342.523C113.032 342.55 113.936 342.558 114.827 342.546L114.833 342.994C114.556 342.998 114.278 343 114 343ZM117.532 342.896L117.506 342.448C118.393 342.396 119.292 342.322 120.178 342.229L120.224 342.676C119.332 342.769 118.427 342.843 117.532 342.896H117.532ZM109.435 342.826C108.54 342.757 107.635 342.668 106.747 342.559L106.801 342.113C107.683 342.221 108.581 342.311 109.469 342.379L109.435 342.826ZM122.903 342.333L122.836 341.889C123.718 341.755 124.607 341.6 125.477 341.427L125.564 341.867C124.687 342.041 123.792 342.198 122.904 342.333H122.903ZM104.074 342.169C103.19 342.019 102.297 341.847 101.422 341.656L101.517 341.218C102.386 341.407 103.271 341.578 104.149 341.726L104.074 342.169ZM128.201 341.28L128.093 340.844C128.959 340.63 129.829 340.394 130.68 340.141L130.808 340.572C129.95 340.826 129.073 341.064 128.201 341.28ZM98.7959 341.023C97.9286 340.792 97.0559 340.538 96.202 340.268L96.3372 339.84C97.1847 340.108 98.0507 340.36 98.9111 340.589L98.7959 341.023ZM133.379 339.744L133.232 339.32C134.072 339.028 134.916 338.712 135.743 338.381L135.909 338.798C135.077 339.131 134.225 339.449 133.379 339.744H133.379ZM93.639 339.392C92.7968 339.083 91.9493 338.749 91.1203 338.399L91.2944 337.986C92.1171 338.332 92.958 338.664 93.7939 338.971L93.639 339.392ZM138.388 337.739L138.202 337.331C139.009 336.964 139.82 336.573 140.612 336.168L140.816 336.568C140.018 336.976 139.201 337.37 138.388 337.739H138.388ZM88.6507 337.292C87.8411 336.906 87.0285 336.496 86.2356 336.072L86.447 335.676C87.234 336.097 88.0403 336.504 88.8437 336.887L88.6507 337.292ZM143.188 335.285L142.966 334.896C143.74 334.454 144.512 333.99 145.261 333.517L145.501 333.896C144.746 334.373 143.968 334.841 143.188 335.285ZM83.8798 334.743C83.1097 334.285 82.3386 333.802 81.5879 333.307L81.8348 332.933C82.5797 333.423 83.3449 333.903 84.1092 334.357L83.8798 334.743ZM147.748 332.401L147.491 332.033C148.219 331.525 148.946 330.992 149.651 330.45L149.925 330.805C149.214 331.351 148.482 331.888 147.748 332.401ZM79.3647 331.769C78.6406 331.243 77.9172 330.692 77.2145 330.131L77.4945 329.781C78.1918 330.337 78.9097 330.884 79.6283 331.406L79.3647 331.769ZM152.027 329.112L151.738 328.769C152.417 328.196 153.093 327.599 153.747 326.994L154.051 327.324C153.392 327.933 152.712 328.535 152.027 329.112ZM75.1416 328.397C74.4672 327.807 73.7971 327.192 73.1502 326.571L73.4608 326.247C74.1029 326.864 74.7678 327.474 75.4371 328.06L75.1416 328.397ZM155.992 325.445L155.673 325.13C156.298 324.495 156.918 323.839 157.512 323.179L157.846 323.479C157.246 324.144 156.623 324.806 155.992 325.445ZM71.2444 324.657C70.6257 324.006 70.0145 323.334 69.4281 322.658L69.767 322.364C70.349 323.035 70.9554 323.702 71.5695 324.348L71.2444 324.657ZM159.608 321.431L159.262 321.146C159.827 320.458 160.384 319.748 160.917 319.035L161.276 319.304C160.739 320.022 160.178 320.738 159.608 321.431ZM67.7049 320.579C67.1492 319.877 66.6021 319.152 66.0786 318.425L66.4427 318.163C66.9622 318.884 67.5052 319.604 68.0568 320.301L67.7049 320.579ZM162.845 317.103L162.474 316.851C162.974 316.114 163.464 315.356 163.93 314.597L164.313 314.832C163.843 315.596 163.349 316.36 162.845 317.103ZM64.5527 316.199C64.0639 315.449 63.5854 314.678 63.1305 313.906L63.5169 313.678C63.9684 314.444 64.4433 315.21 64.9284 315.953L64.5527 316.199ZM165.675 312.495L165.283 312.278C165.713 311.499 166.132 310.698 166.527 309.899L166.929 310.098C166.531 310.903 166.109 311.709 165.675 312.495ZM61.8148 311.552C61.3964 310.761 60.9907 309.949 60.6089 309.14L61.0146 308.948C61.3935 309.752 61.7961 310.557 62.2114 311.342L61.8148 311.552ZM168.071 307.645L167.66 307.464C168.018 306.648 168.361 305.812 168.681 304.979L169.1 305.14C168.778 305.979 168.431 306.822 168.071 307.645ZM59.5152 306.676C59.1712 305.851 58.8418 305.006 58.5362 304.166L58.9579 304.013C59.2611 304.847 59.588 305.685 59.9292 306.504L59.5152 306.676ZM170.011 302.59L169.585 302.449C169.865 301.605 170.13 300.743 170.371 299.886L170.803 300.007C170.56 300.871 170.293 301.74 170.011 302.59V302.59ZM57.672 301.607C57.405 300.752 57.1542 299.878 56.9264 299.01L57.3604 298.896C57.5864 299.758 57.8354 300.625 58.1003 301.473L57.672 301.607ZM171.474 297.39L171.037 297.289C171.238 296.424 171.421 295.541 171.583 294.664L172.024 294.745C171.861 295.629 171.676 296.519 171.474 297.39V297.39ZM56.3016 296.382C56.1146 295.506 55.9452 294.613 55.7984 293.728L56.241 293.655C56.3868 294.533 56.5548 295.419 56.7405 296.288L56.3016 296.382ZM172.451 292.079L172.007 292.018C172.127 291.139 172.229 290.243 172.31 289.354L172.757 289.395C172.676 290.29 172.573 291.193 172.451 292.079V292.079ZM55.4174 291.054C55.3116 290.166 55.2248 289.262 55.1592 288.366L55.6067 288.333C55.6717 289.222 55.758 290.12 55.8631 291.001L55.4174 291.054ZM172.939 286.7L172.491 286.68C172.531 285.791 172.551 284.889 172.551 284H173C173 284.896 172.98 285.805 172.939 286.7V286.7ZM55.0232 285.668C55.0079 285.118 55.0001 284.556 55 284C55 283.655 55.003 283.31 55.0089 282.966L55.4575 282.974C55.4516 283.315 55.4487 283.657 55.4487 284C55.4488 284.552 55.4566 285.109 55.4717 285.656L55.0232 285.668ZM172.548 283.374C172.539 282.485 172.509 281.583 172.46 280.694L172.908 280.669C172.957 281.565 172.987 282.473 172.997 283.369L172.548 283.374ZM55.564 280.296L55.1162 280.267C55.1722 279.371 55.2495 278.466 55.3458 277.576L55.7919 277.625C55.6962 278.507 55.6197 279.406 55.564 280.296ZM172.25 278.022C172.16 277.137 172.049 276.242 171.919 275.362L172.362 275.296C172.493 276.184 172.606 277.085 172.696 277.977L172.25 278.022ZM56.1412 274.967L55.6978 274.898C55.8352 274.011 55.9949 273.116 56.1725 272.239L56.6122 272.328C56.436 273.198 56.2775 274.086 56.1412 274.967ZM171.466 272.72C171.295 271.845 171.102 270.964 170.892 270.102L171.328 269.996C171.539 270.864 171.734 271.752 171.906 272.634L171.466 272.72ZM57.2039 269.714L56.7687 269.605C56.9866 268.736 57.2279 267.859 57.486 267L57.9156 267.129C57.6596 267.982 57.4201 268.851 57.2039 269.714ZM170.198 267.512C169.948 266.658 169.674 265.799 169.385 264.958L169.809 264.812C170.101 265.659 170.376 266.525 170.629 267.386L170.198 267.512ZM58.7484 264.573L58.3251 264.425C58.6233 263.576 58.9452 262.724 59.282 261.892L59.698 262.06C59.3638 262.886 59.0443 263.732 58.7484 264.573H58.7484ZM168.455 262.443C168.128 261.618 167.778 260.789 167.414 259.98L167.823 259.796C168.19 260.611 168.543 261.446 168.873 262.278L168.455 262.443ZM60.7622 259.594L60.3545 259.406C60.7292 258.59 61.128 257.772 61.5399 256.974L61.9386 257.18C61.5298 257.972 61.134 258.784 60.7622 259.594ZM166.26 257.567C165.858 256.775 165.433 255.981 164.995 255.208L165.386 254.987C165.827 255.766 166.255 256.566 166.66 257.364L166.26 257.567ZM63.2247 254.823L62.8358 254.599C63.2834 253.822 63.7554 253.044 64.2388 252.287L64.6169 252.529C64.1373 253.28 63.6688 254.052 63.2247 254.823ZM163.624 252.909C163.15 252.154 162.653 251.402 162.148 250.674L162.517 250.418C163.026 251.152 163.526 251.909 164.004 252.67L163.624 252.909ZM66.1126 250.301L65.7458 250.042C66.2631 249.309 66.8039 248.578 67.3535 247.869L67.708 248.144C67.1626 248.847 66.6257 249.573 66.1126 250.301ZM160.572 248.508C160.031 247.8 159.468 247.096 158.898 246.416L159.242 246.127C159.816 246.813 160.384 247.522 160.928 248.236L160.572 248.508ZM69.3998 246.063L69.0583 245.772C69.6387 245.09 70.2437 244.412 70.8563 243.755L71.1843 244.061C70.5764 244.713 69.976 245.386 69.3998 246.063ZM157.13 244.401C156.528 243.745 155.902 243.095 155.272 242.469L155.589 242.15C156.224 242.781 156.853 243.437 157.461 244.097L157.13 244.401ZM73.0575 242.143L72.7438 241.823C73.3854 241.195 74.0493 240.574 74.7169 239.978L75.0157 240.313C74.3531 240.905 73.6943 241.52 73.0575 242.143ZM153.328 240.622C152.668 240.023 151.986 239.433 151.302 238.866L151.588 238.521C152.277 239.091 152.964 239.686 153.63 240.29L153.328 240.622ZM77.0548 238.574L76.7715 238.226C77.4654 237.661 78.1826 237.104 78.9031 236.569L79.1704 236.93C78.4552 237.46 77.7435 238.013 77.0548 238.574ZM149.197 237.204C148.484 236.667 147.751 236.141 147.017 235.639L147.271 235.269C148.01 235.774 148.748 236.305 149.467 236.845L149.197 237.204ZM81.358 235.384L81.1076 235.012C81.8503 234.513 82.6148 234.023 83.3802 233.558L83.6133 233.941C82.8539 234.403 82.0951 234.889 81.358 235.384ZM144.768 234.175C144.01 233.706 143.231 233.248 142.454 232.815L142.672 232.423C143.456 232.86 144.24 233.321 145.004 233.793L144.768 234.175ZM85.9317 232.602L85.7163 232.209C86.502 231.779 87.3077 231.362 88.1108 230.969L88.308 231.372C87.511 231.762 86.7115 232.176 85.9317 232.602L85.9317 232.602ZM140.079 231.563C139.281 231.165 138.463 230.781 137.649 230.421L137.83 230.01C138.651 230.373 139.475 230.761 140.28 231.161L140.079 231.563ZM90.7373 230.252L90.559 229.84C91.3801 229.484 92.2201 229.143 93.0554 228.826L93.2147 229.245C92.3857 229.56 91.5522 229.899 90.7373 230.252ZM135.167 229.392C134.336 229.069 133.486 228.762 132.64 228.478L132.783 228.053C133.635 228.339 134.492 228.649 135.329 228.973L135.167 229.392ZM95.7419 228.351L95.6022 227.925C96.4548 227.646 97.3248 227.382 98.1877 227.143L98.3076 227.575C97.4513 227.813 96.588 228.074 95.7419 228.351ZM130.079 227.684C129.224 227.44 128.351 227.213 127.485 227.009L127.588 226.573C128.461 226.778 129.34 227.007 130.202 227.253L130.079 227.684ZM100.907 226.918L100.807 226.481C101.681 226.281 102.571 226.099 103.453 225.94L103.533 226.381C102.658 226.539 101.774 226.72 100.907 226.918ZM124.863 226.454C123.989 226.29 123.099 226.145 122.218 226.021L122.28 225.576C123.168 225.701 124.065 225.848 124.946 226.013L124.863 226.454ZM106.181 225.966L106.122 225.522C107.01 225.403 107.913 225.303 108.806 225.226L108.845 225.672C107.959 225.75 107.063 225.849 106.181 225.966ZM119.555 225.709C118.671 225.626 117.772 225.561 116.881 225.518L116.903 225.07C117.8 225.114 118.707 225.178 119.597 225.262L119.555 225.709ZM111.521 225.5L111.502 225.052C112.326 225.018 113.167 225 114 225L114.203 225L114.202 225.449L114 225.449C113.173 225.449 112.339 225.466 111.521 225.5Z" fill="#3F3D56"></path>
          <path d="M451 225C450.378 225 449.749 224.99 449.132 224.971L449.146 224.523C450.032 224.55 450.936 224.558 451.827 224.546L451.833 224.994C451.556 224.998 451.278 225 451 225ZM454.532 224.896L454.506 224.448C455.393 224.396 456.292 224.322 457.178 224.229L457.224 224.676C456.332 224.769 455.427 224.843 454.532 224.896H454.532ZM446.435 224.826C445.54 224.757 444.635 224.668 443.747 224.559L443.801 224.113C444.683 224.221 445.581 224.311 446.469 224.379L446.435 224.826ZM459.903 224.333L459.836 223.889C460.718 223.755 461.607 223.6 462.477 223.427L462.564 223.867C461.687 224.041 460.792 224.198 459.904 224.333H459.903ZM441.074 224.169C440.19 224.019 439.297 223.847 438.422 223.656L438.517 223.218C439.386 223.407 440.271 223.578 441.149 223.726L441.074 224.169ZM465.201 223.28L465.093 222.844C465.959 222.63 466.829 222.394 467.68 222.141L467.808 222.572C466.95 222.826 466.073 223.064 465.201 223.28ZM435.796 223.023C434.929 222.792 434.056 222.538 433.202 222.268L433.337 221.84C434.185 222.108 435.051 222.36 435.911 222.589L435.796 223.023ZM470.379 221.744L470.232 221.32C471.072 221.028 471.916 220.712 472.743 220.381L472.909 220.798C472.077 221.131 471.225 221.449 470.379 221.744H470.379ZM430.639 221.392C429.797 221.083 428.949 220.749 428.12 220.399L428.294 219.986C429.117 220.332 429.958 220.664 430.794 220.971L430.639 221.392ZM475.388 219.739L475.202 219.331C476.009 218.964 476.82 218.573 477.612 218.168L477.816 218.568C477.018 218.976 476.201 219.37 475.388 219.739H475.388ZM425.651 219.292C424.841 218.906 424.028 218.496 423.236 218.072L423.447 217.676C424.234 218.097 425.04 218.504 425.844 218.887L425.651 219.292ZM480.188 217.285L479.966 216.896C480.74 216.454 481.512 215.99 482.261 215.517L482.501 215.896C481.746 216.373 480.968 216.841 480.188 217.285ZM420.88 216.743C420.11 216.285 419.339 215.802 418.588 215.307L418.835 214.933C419.58 215.423 420.345 215.903 421.109 216.357L420.88 216.743ZM484.748 214.401L484.491 214.033C485.219 213.525 485.946 212.992 486.651 212.45L486.925 212.805C486.214 213.351 485.482 213.888 484.748 214.401ZM416.365 213.769C415.641 213.243 414.917 212.692 414.214 212.131L414.494 211.781C415.192 212.337 415.91 212.884 416.628 213.406L416.365 213.769ZM489.027 211.112L488.738 210.769C489.417 210.196 490.093 209.599 490.747 208.994L491.051 209.324C490.392 209.933 489.712 210.535 489.027 211.112ZM412.142 210.397C411.467 209.807 410.797 209.192 410.15 208.571L410.461 208.247C411.103 208.864 411.768 209.474 412.437 210.06L412.142 210.397ZM492.992 207.445L492.673 207.13C493.298 206.495 493.918 205.839 494.512 205.179L494.846 205.479C494.246 206.144 493.623 206.806 492.992 207.445ZM408.244 206.657C407.626 206.006 407.015 205.334 406.428 204.658L406.767 204.364C407.349 205.035 407.955 205.702 408.57 206.348L408.244 206.657ZM496.608 203.431L496.262 203.146C496.827 202.458 497.384 201.748 497.917 201.035L498.276 201.304C497.739 202.022 497.178 202.738 496.608 203.431ZM404.705 202.579C404.149 201.877 403.602 201.152 403.079 200.425L403.443 200.163C403.962 200.884 404.505 201.604 405.057 202.301L404.705 202.579ZM499.845 199.103L499.474 198.851C499.974 198.114 500.464 197.356 500.93 196.597L501.313 196.832C500.843 197.596 500.349 198.36 499.845 199.103ZM401.553 198.199C401.064 197.449 400.585 196.678 400.13 195.906L400.517 195.678C400.968 196.444 401.443 197.21 401.928 197.953L401.553 198.199ZM502.675 194.495L502.283 194.278C502.713 193.499 503.132 192.698 503.527 191.899L503.929 192.098C503.531 192.903 503.109 193.709 502.675 194.495ZM398.815 193.552C398.396 192.761 397.991 191.949 397.609 191.14L398.015 190.948C398.394 191.752 398.796 192.557 399.211 193.342L398.815 193.552ZM505.071 189.645L504.66 189.464C505.018 188.648 505.361 187.812 505.681 186.979L506.1 187.14C505.778 187.979 505.431 188.822 505.071 189.645ZM396.515 188.676C396.171 187.851 395.842 187.006 395.536 186.166L395.958 186.013C396.261 186.847 396.588 187.685 396.929 188.504L396.515 188.676ZM507.011 184.59L506.585 184.449C506.865 183.605 507.13 182.743 507.371 181.886L507.803 182.007C507.56 182.871 507.293 183.74 507.011 184.59V184.59ZM394.672 183.607C394.405 182.752 394.154 181.878 393.926 181.01L394.36 180.896C394.586 181.758 394.835 182.625 395.1 183.473L394.672 183.607ZM508.474 179.39L508.037 179.289C508.238 178.424 508.421 177.541 508.583 176.664L509.024 176.745C508.861 177.629 508.676 178.519 508.474 179.39V179.39ZM393.302 178.382C393.115 177.506 392.945 176.613 392.798 175.728L393.241 175.655C393.387 176.533 393.555 177.419 393.74 178.288L393.302 178.382ZM509.451 174.079L509.007 174.018C509.127 173.139 509.229 172.243 509.31 171.354L509.757 171.395C509.676 172.29 509.573 173.193 509.451 174.079V174.079ZM392.417 173.054C392.312 172.166 392.225 171.262 392.159 170.366L392.607 170.333C392.672 171.222 392.758 172.12 392.863 173.001L392.417 173.054ZM509.939 168.7L509.491 168.68C509.531 167.791 509.551 166.889 509.551 166H510C510 166.896 509.98 167.805 509.939 168.7V168.7ZM392.023 167.668C392.008 167.118 392 166.556 392 166C392 165.655 392.003 165.31 392.009 164.966L392.458 164.974C392.452 165.315 392.449 165.657 392.449 166C392.449 166.552 392.457 167.109 392.472 167.656L392.023 167.668ZM509.548 165.374C509.539 164.485 509.509 163.583 509.46 162.694L509.908 162.669C509.957 163.565 509.987 164.473 509.997 165.369L509.548 165.374ZM392.564 162.296L392.116 162.267C392.172 161.371 392.25 160.466 392.346 159.576L392.792 159.625C392.696 160.507 392.62 161.406 392.564 162.296ZM509.25 160.022C509.16 159.137 509.049 158.242 508.919 157.362L509.362 157.296C509.493 158.184 509.606 159.085 509.696 159.977L509.25 160.022ZM393.141 156.967L392.698 156.898C392.835 156.011 392.995 155.116 393.172 154.239L393.612 154.328C393.436 155.198 393.278 156.086 393.141 156.967ZM508.466 154.72C508.295 153.845 508.102 152.964 507.892 152.102L508.328 151.996C508.539 152.864 508.734 153.752 508.906 154.634L508.466 154.72ZM394.204 151.714L393.769 151.605C393.987 150.736 394.228 149.859 394.486 149L394.916 149.129C394.66 149.982 394.42 150.851 394.204 151.714ZM507.198 149.512C506.948 148.658 506.674 147.799 506.385 146.958L506.809 146.812C507.101 147.659 507.376 148.525 507.629 149.386L507.198 149.512ZM395.748 146.573L395.325 146.425C395.623 145.576 395.945 144.724 396.282 143.892L396.698 144.06C396.364 144.886 396.044 145.732 395.748 146.573H395.748ZM505.455 144.443C505.128 143.618 504.778 142.789 504.414 141.98L504.823 141.796C505.19 142.611 505.543 143.446 505.873 144.278L505.455 144.443ZM397.762 141.594L397.354 141.406C397.729 140.59 398.128 139.772 398.54 138.974L398.939 139.18C398.53 139.972 398.134 140.784 397.762 141.594ZM503.26 139.567C502.858 138.775 502.433 137.981 501.995 137.208L502.386 136.987C502.827 137.766 503.255 138.566 503.66 139.364L503.26 139.567ZM400.225 136.823L399.836 136.599C400.283 135.822 400.755 135.044 401.239 134.287L401.617 134.529C401.137 135.28 400.669 136.052 400.225 136.823ZM500.624 134.909C500.15 134.154 499.653 133.402 499.148 132.674L499.517 132.418C500.026 133.152 500.526 133.909 501.004 134.67L500.624 134.909ZM403.113 132.301L402.746 132.042C403.263 131.309 403.804 130.578 404.354 129.869L404.708 130.144C404.163 130.847 403.626 131.573 403.113 132.301ZM497.572 130.508C497.031 129.8 496.468 129.096 495.898 128.416L496.242 128.127C496.816 128.813 497.384 129.522 497.928 130.236L497.572 130.508ZM406.4 128.063L406.058 127.772C406.639 127.09 407.244 126.412 407.856 125.755L408.184 126.061C407.576 126.713 406.976 127.386 406.4 128.063ZM494.13 126.401C493.528 125.745 492.902 125.095 492.272 124.469L492.589 124.15C493.224 124.781 493.853 125.437 494.461 126.097L494.13 126.401ZM410.058 124.143L409.744 123.823C410.385 123.195 411.049 122.574 411.717 121.978L412.016 122.313C411.353 122.905 410.694 123.52 410.058 124.143ZM490.328 122.622C489.668 122.023 488.986 121.433 488.302 120.866L488.588 120.521C489.277 121.091 489.964 121.686 490.63 122.29L490.328 122.622ZM414.055 120.574L413.772 120.226C414.465 119.661 415.183 119.104 415.903 118.569L416.17 118.93C415.455 119.46 414.743 120.013 414.055 120.574ZM486.197 119.204C485.484 118.667 484.751 118.141 484.017 117.639L484.271 117.269C485.01 117.774 485.748 118.305 486.467 118.845L486.197 119.204ZM418.358 117.384L418.108 117.012C418.85 116.513 419.615 116.023 420.38 115.558L420.613 115.941C419.854 116.403 419.095 116.889 418.358 117.384ZM481.768 116.175C481.01 115.706 480.231 115.248 479.454 114.815L479.672 114.423C480.456 114.86 481.24 115.321 482.004 115.793L481.768 116.175ZM422.932 114.602L422.716 114.209C423.502 113.779 424.308 113.362 425.111 112.969L425.308 113.372C424.511 113.762 423.711 114.176 422.932 114.602L422.932 114.602ZM477.079 113.563C476.281 113.165 475.463 112.781 474.649 112.421L474.83 112.01C475.651 112.373 476.475 112.761 477.28 113.161L477.079 113.563ZM427.737 112.252L427.559 111.84C428.38 111.484 429.22 111.143 430.055 110.826L430.215 111.245C429.386 111.56 428.552 111.899 427.737 112.252ZM472.167 111.392C471.336 111.069 470.486 110.762 469.64 110.478L469.783 110.053C470.635 110.339 471.492 110.649 472.329 110.973L472.167 111.392ZM432.742 110.351L432.602 109.925C433.455 109.646 434.325 109.382 435.188 109.143L435.308 109.575C434.451 109.813 433.588 110.074 432.742 110.351ZM467.079 109.684C466.224 109.44 465.351 109.213 464.485 109.009L464.588 108.573C465.461 108.778 466.34 109.007 467.202 109.253L467.079 109.684ZM437.907 108.918L437.807 108.481C438.681 108.281 439.571 108.099 440.453 107.94L440.533 108.381C439.658 108.539 438.774 108.72 437.907 108.918ZM461.863 108.454C460.989 108.29 460.099 108.145 459.218 108.021L459.28 107.576C460.168 107.701 461.065 107.848 461.946 108.013L461.863 108.454ZM443.181 107.966L443.122 107.522C444.01 107.403 444.913 107.303 445.806 107.226L445.845 107.672C444.959 107.75 444.063 107.849 443.181 107.966ZM456.555 107.709C455.671 107.626 454.772 107.561 453.881 107.518L453.903 107.07C454.8 107.114 455.707 107.178 456.597 107.262L456.555 107.709ZM448.521 107.5L448.502 107.052C449.326 107.018 450.167 107 451 107L451.203 107L451.202 107.449L451 107.449C450.173 107.449 449.339 107.466 448.521 107.5Z" fill="#3F3D56"></path>
          <path d="M234.608 71.6961C234.606 81.7985 231.864 91.7117 226.673 100.382C221.482 109.053 214.037 116.157 205.128 120.939C204.46 121.301 203.781 121.648 203.092 121.979C195.447 125.678 187.059 127.593 178.564 127.577C170.069 127.562 161.688 125.618 154.056 121.891C152.741 121.249 151.456 120.556 150.202 119.811C148.928 119.066 147.69 118.264 146.488 117.415C138.585 111.865 132.255 104.365 128.115 95.646C123.974 86.9269 122.165 77.2855 122.862 67.6605C123.56 58.0356 126.74 48.7549 132.094 40.7221C137.448 32.6892 144.793 26.1779 153.414 21.822C156.819 20.0931 160.396 18.7231 164.085 17.7343C165.712 17.2945 167.366 16.9289 169.048 16.6374C172.223 16.0874 175.44 15.8122 178.662 15.8147C179.325 15.8147 179.983 15.8251 180.641 15.8561C181.123 15.8665 181.605 15.8872 182.086 15.9182C187.123 16.2189 192.095 17.2024 196.865 18.8416C197.275 18.9813 197.684 19.1262 198.088 19.2763C199.497 19.7937 200.875 20.3697 202.222 21.0044C211.897 25.4899 220.087 32.6452 225.825 41.6268C231.564 50.6083 234.611 61.0415 234.608 71.6961Z" fill="#5F6CAF"></path>
          <path d="M200.499 14.5523C195.409 2.55633 182.452 0.290777 182.452 0.290777C182.452 0.290777 169.976 -3.03359 159.558 12.7985C149.847 27.5554 137.324 41.3813 153.205 47.2715L157.4 38.4711L157.904 48.5989C160.213 49.0793 162.547 49.4331 164.895 49.6587C182.511 51.4462 199.117 54.4184 199.424 48.0595C199.833 39.6062 205.396 26.0948 200.499 14.5523Z" fill="#2F2E41"></path>
          <path d="M155.258 112.319L154.844 115.641L154.056 121.891C152.741 121.249 151.456 120.556 150.202 119.811C148.928 119.066 147.69 118.264 146.488 117.415L146.612 114.192L146.752 110.616L152.502 111.77L155.258 112.319Z" fill="#FFB8B8"></path>
          <path d="M213.136 115.713C210.621 117.68 207.942 119.429 205.128 120.939L202.413 111.548L202.056 110.311L201.165 107.222L202.123 107.072L211.935 105.525L212.251 108.19L213.136 115.713Z" fill="#FFB8B8"></path>
          <path d="M182.461 39.2884C190.912 39.2884 197.763 32.4451 197.763 24.0035C197.763 15.5618 190.912 8.71851 182.461 8.71851C174.009 8.71851 167.158 15.5618 167.158 24.0035C167.158 32.4451 174.009 39.2884 182.461 39.2884Z" fill="#FFB8B8"></path>
          <path d="M171.976 29.9475C171.976 29.9475 173.109 49.1952 169.708 50.3275C166.308 51.4597 187.278 50.3275 187.278 50.3275C187.278 50.3275 184.444 38.4392 187.278 35.0425C190.112 31.6458 171.976 29.9475 171.976 29.9475Z" fill="#FFB8B8"></path>
          <path d="M187.562 47.2139C187.562 47.2139 172.826 46.0817 169.992 47.2139C167.158 48.3461 159.223 54.0072 159.223 54.0072L163.191 89.6721L195.496 96.4654L200.597 89.106L205.698 78.3499L203.431 64.7633L202.864 56.8378L187.562 47.2139Z" fill="#D0CDE1"></path>
          <path d="M156.39 56.2717C156.39 56.2717 149.022 57.9701 148.455 63.6312C147.888 69.2923 147.888 83.445 148.455 85.7094C149.022 87.9739 148.455 89.1061 147.888 89.6722C147.321 90.2383 146.188 89.1061 147.321 90.8044C148.455 92.5028 148.455 92.5028 147.888 94.2011C147.321 95.8994 145.621 93.635 146.755 96.4655C147.888 99.2961 148.455 99.8622 147.888 100.428C147.321 100.994 145.621 114.015 145.621 114.015L155.256 115.713L164.891 82.3128L156.39 56.2717Z" fill="#D0CDE1"></path>
          <path d="M200.597 56.2717C201.674 56.3317 202.714 56.6783 203.611 57.2756C204.508 57.8729 205.229 58.6991 205.698 59.6684C207.398 63.065 211.933 85.1433 211.366 86.8417C210.799 88.54 209.665 86.2755 210.799 89.6722C211.932 93.0689 210.799 92.5027 211.366 94.7672C211.933 97.0316 209.099 94.7672 211.366 97.0316C213.633 99.2961 214.766 99.8622 213.633 100.994C212.499 102.127 210.799 99.8622 212.499 102.127C214.2 104.391 214.2 107.788 214.2 107.788L200.597 110.618L196.63 78.9161L200.597 56.2717Z" fill="#D0CDE1"></path>
          <path d="M202.413 111.548L203.092 121.979C195.446 125.678 187.059 127.593 178.564 127.578C170.069 127.562 161.688 125.618 154.056 121.891C152.74 121.25 151.456 120.556 150.202 119.811C150.637 118.212 151.078 116.619 151.528 115.056C151.849 113.944 152.174 112.848 152.502 111.77C155.046 103.456 157.786 96.3824 160.355 93.6349C160.355 93.6349 160.355 87.4103 161.49 86.8411C162.035 86.4143 162.451 85.8447 162.692 85.1957C163.114 84.261 163.47 83.298 163.759 82.3137L161.883 77.957L153.492 58.4399C153.253 57.8817 153.236 57.2534 153.445 56.6833C153.654 56.1131 154.072 55.644 154.616 55.3716L157.397 53.9798C157.679 53.84 157.986 53.7573 158.3 53.7363C158.614 53.7153 158.929 53.7565 159.227 53.8574C159.525 53.9584 159.8 54.1172 160.036 54.3246C160.272 54.5321 160.465 54.7842 160.604 55.0664L173.394 81.1805L187.562 90.2406L197.497 85.827L197.761 85.708C197.761 85.708 205.133 74.3868 202.864 68.7263C201.895 66.3099 200.828 63.0812 199.911 60.1681C199.378 58.4503 198.901 56.8411 198.528 55.5786C198.469 55.3781 198.474 55.1643 198.541 54.9664C198.608 54.7684 198.734 54.5959 198.903 54.4722C199.071 54.3484 199.274 54.2795 199.483 54.2747C199.692 54.2699 199.898 54.3295 200.072 54.4454L202.004 55.7338C202.442 56.0273 202.788 56.4379 203.004 56.9187C203.093 57.1066 203.159 57.3047 203.201 57.5086L207.397 77.7863L201.729 89.6714V100.993L202.123 107.072L202.33 110.254L202.413 111.548Z" fill="#2F2E41"></path>
          <path d="M197.621 10.1941L184.636 3.40039L166.704 6.17945L162.994 22.5465L172.229 22.1921L174.81 16.1786V22.0927L179.071 21.9292L181.544 12.3559L183.09 22.5465L198.24 22.2381L197.621 10.1941Z" fill="#2F2E41"></path>
          <path d="M166.875 26.9754C167.814 26.9754 168.575 25.6448 168.575 24.0033C168.575 22.3619 167.814 21.0312 166.875 21.0312C165.936 21.0312 165.174 22.3619 165.174 24.0033C165.174 25.6448 165.936 26.9754 166.875 26.9754Z" fill="#FFB8B8"></path>
          <path d="M506 164C506 188.653 489.928 209.518 467.779 216.5C464.509 217.537 461.152 218.253 457.752 218.638C455.676 218.88 453.589 219.001 451.5 219C450.723 219 449.951 218.985 449.184 218.944H449.174C441.382 218.63 433.742 216.61 426.758 213.016C421.852 210.491 417.34 207.216 413.375 203.299C408.21 198.247 404.094 192.156 401.278 185.399C398.463 178.641 397.007 171.36 397 164C397 140.691 411.367 120.769 431.653 112.763C434.08 111.802 436.571 111.022 439.106 110.431C448.448 108.244 458.174 108.568 467.36 111.373C468.057 111.577 468.748 111.806 469.429 112.05C469.435 112.05 469.44 112.056 469.445 112.056C471.084 112.626 472.694 113.283 474.269 114.021C474.809 114.266 475.349 114.525 475.879 114.801C476.938 115.33 477.978 115.899 478.997 116.507C479.391 116.736 479.779 116.97 480.163 117.214C486.423 121.118 491.856 126.294 496.134 132.431C500.026 138.011 502.852 144.309 504.461 150.988C505.487 155.244 506.004 159.614 506 164Z" fill="#5F6CAF"></path>
          <path d="M510.325 74.5855L518.111 72.2238L518.783 65.5528C518.783 65.5528 499.846 58.5936 493.792 70.9031C491.654 75.2494 488.96 77.8596 486.369 79.4179C484.58 80.4513 482.585 81.0767 480.526 81.2492C478.467 81.4217 476.395 81.1371 474.459 80.4158C461.335 75.7527 458.244 89.0133 458.244 89.0133C458.244 89.0133 459.379 90.901 467.469 91.3651C471.495 91.5961 474.789 94.5436 477.083 97.4467C481.995 103.663 492.084 101.866 494.561 94.4053C494.601 94.2851 494.64 94.1633 494.679 94.04C498.549 81.7065 516.168 91.5263 516.168 91.5263L517.292 80.3553L510.325 74.5855Z" fill="#2F2E41"></path>
          <path d="M457.275 104.775C462.541 104.775 466.811 100.622 466.811 95.4982C466.811 90.3745 462.541 86.2209 457.275 86.2209C452.008 86.2209 447.739 90.3745 447.739 95.4982C447.739 100.622 452.008 104.775 457.275 104.775Z" fill="#2F2E41"></path>
          <path d="M452.507 144.977C466.551 144.977 477.936 133.9 477.936 120.237C477.936 106.574 466.551 95.498 452.507 95.498C438.462 95.498 427.077 106.574 427.077 120.237C427.077 133.9 438.462 144.977 452.507 144.977Z" fill="#2F2E41"></path>
          <path d="M451.712 146.265C461.367 146.265 469.195 138.65 469.195 129.257C469.195 119.864 461.367 112.249 451.712 112.249C442.057 112.249 434.229 119.864 434.229 129.257C434.229 138.65 442.057 146.265 451.712 146.265Z" fill="#A0616A"></path>
          <path d="M444.825 142.142L448.003 158.635L463.897 156.573C463.897 156.573 461.248 143.688 462.837 140.081L444.825 142.142Z" fill="#A0616A"></path>
          <path d="M476.082 106.064C476.082 106.064 463.367 96.7866 458.069 100.394C452.771 104.002 472.373 115.857 474.492 114.826C476.611 113.795 476.082 106.064 476.082 106.064Z" fill="#A0616A"></path>
          <path d="M488.267 176.156C488.268 176.242 488.265 176.327 488.256 176.412V176.418C487.93 183.785 473.99 206.332 465.949 217.163C462.536 218.207 459.033 218.927 455.485 219.315C453.318 219.558 451.14 219.679 448.96 219.678C448.149 219.678 447.343 219.663 446.543 219.622H446.532C439.128 217.296 430.334 214.243 423.919 211.835C420.897 210.692 418.4 209.698 416.831 208.991C416.247 208.752 415.53 207.843 415 207.5C412.351 205.435 418.337 204.503 420.986 203.991C423.635 203.474 419.928 197.807 419.928 197.807C410.391 188.012 422.045 179.768 422.045 179.768C422.045 179.768 426.811 169.973 426.811 167.396C426.823 167.204 426.895 167.022 427.016 166.873C429.012 164.127 444.826 159.152 444.826 159.152V150.904L446.464 150.637L462.578 148.025L463.895 147.809L466.544 151.934L478.203 153.481C478.203 153.481 488.267 166.883 488.267 176.156Z" fill="#F1C6DE"></path>
          <path d="M438 176.151C438 176.151 430.96 194.656 424.53 209.652C424.307 210.176 424.084 210.694 423.866 211.208C423.601 211.812 424.126 211.411 423.866 212C418.704 209.504 413.172 207.266 409 203.395C411.888 194.49 416.47 180.339 418.238 174.635C420.187 168.348 424.695 167.195 426.988 167.029C427.453 166.987 427.921 166.991 428.385 167.039L438 176.151Z" fill="#F1C6DE"></path>
          <path d="M476.611 155.027L478.201 153.481C478.201 153.481 498.332 132.349 497.803 127.195C497.803 127.195 487.207 114.31 473.963 117.918C473.963 117.918 468.135 104.002 477.141 104.518C486.147 105.033 519.523 102.971 518.994 117.918C518.464 132.865 486.677 178.736 486.677 178.736L476.611 155.027Z" fill="#F1C6DE"></path>
          <path d="M469.114 121.424C470.943 115.717 464.991 108.712 455.819 105.779C446.647 102.847 437.729 105.096 435.899 110.804C434.07 116.512 440.022 123.516 449.194 126.449C458.366 129.382 467.284 127.132 469.114 121.424Z" fill="#2F2E41"></path>
          <path d="M59 281.769C58.999 284.641 59.2172 287.509 59.6527 290.348C61.7464 303.76 68.6504 315.954 79.0784 324.658C79.3633 324.896 79.6534 325.134 79.9487 325.367C80.5599 325.858 81.1815 326.336 81.8135 326.8C82.7252 327.473 83.6577 328.116 84.6108 328.73C92.104 333.552 100.641 336.519 109.512 337.385C118.384 338.251 127.334 336.99 135.62 333.707C136.014 333.552 136.407 333.392 136.796 333.226C137.418 332.962 138.029 332.688 138.64 332.398C140.189 331.679 141.7 330.888 143.173 330.023C144.691 329.139 146.158 328.187 147.576 327.167C148.223 326.702 148.85 326.231 149.477 325.739L149.487 325.734C157.776 319.232 164.063 310.53 167.628 300.624V300.618C171.89 288.701 171.98 275.692 167.886 263.716C163.791 251.74 155.753 241.504 145.084 234.678C144.592 234.368 144.095 234.058 143.592 233.768C143.074 233.447 142.546 233.147 142.012 232.857C134.832 228.877 126.856 226.539 118.66 226.012C117.432 225.929 116.194 225.887 114.946 225.887C114.884 225.887 114.822 225.887 114.759 225.893C113.081 225.893 111.423 225.97 109.786 226.125C95.9012 227.41 82.9966 233.827 73.6019 244.12C64.2072 254.414 58.9997 267.84 59 281.769Z" fill="#5F6CAF"></path>
          <path d="M172.607 300.959C172.607 300.959 188.947 284.094 193.304 294.431C197.661 304.767 176.965 310.208 176.965 310.208L172.607 300.959Z" fill="#FFB8B8"></path>
          <path d="M127.958 249.93C136.602 249.93 143.61 242.931 143.61 234.296C143.61 225.662 136.602 218.663 127.958 218.663C119.314 218.663 112.306 225.662 112.306 234.296C112.306 242.931 119.314 249.93 127.958 249.93Z" fill="#FFB8B8"></path>
          <path d="M117.597 239.484L106.16 251.453L102.892 269.95L131.758 274.846L129.58 257.981C129.58 257.981 130.124 249.821 132.303 248.189C134.482 246.557 117.597 239.484 117.597 239.484Z" fill="#FFB8B8"></path>
          <path d="M83.8286 326.531C84.7835 326.224 85.7535 325.967 86.7347 325.76C89.2041 325.224 91.7157 324.903 94.2408 324.803C100.217 324.488 106.178 325.641 111.605 328.161C119.541 331.964 128.958 332.999 135.434 333.195C135.905 333.211 136.361 333.221 136.796 333.226C137.418 332.962 138.029 332.688 138.64 332.398C140.189 331.679 141.7 330.888 143.173 330.023L143.152 328.109L142.81 290.234V290.229L142.65 272.124L132.305 260.156L129.647 257.165L128.383 258.299L120.867 265.056L109.911 254.92L106.16 251.453L88.1696 311.945L85.8489 319.747L84.4813 324.342L84.2689 325.046V325.051L83.8286 326.531Z" fill="#575A89"></path>
          <path d="M125.628 273.806C125.654 276.523 125.882 279.235 126.311 281.919C128.176 293.814 129.777 313.59 133.74 327.871C134.258 329.754 134.822 331.534 135.434 333.195L135.62 333.708C136.014 333.552 136.407 333.392 136.796 333.226C137.418 332.963 138.029 332.688 138.64 332.398C140.189 331.679 141.7 330.888 143.173 330.024C144.691 329.139 146.158 328.187 147.576 327.167L147.41 326.515V326.51L144.83 316.193C144.83 316.193 146.488 307.557 147.814 297.897V297.892C149.337 286.834 150.425 274.447 148.099 272.124L129.849 255.448L129.844 255.453C129.276 256.357 128.787 257.31 128.383 258.299C127.14 261.243 125.565 266.438 125.628 273.806Z" fill="#D0CDE1"></path>
          <path d="M68.8477 313.435C71.7312 317.623 75.1732 321.399 79.0785 324.658C79.3634 324.896 79.6535 325.134 79.9488 325.367C80.56 325.858 81.1817 326.336 81.8136 326.8C82.7254 327.473 83.6578 328.116 84.611 328.73C85.3155 327.752 86.0251 326.758 86.7348 325.76C87.1544 325.175 87.574 324.585 87.9936 323.99C88.6567 323.049 89.3198 322.102 89.9724 321.15C90.0553 321.036 90.133 320.922 90.2107 320.808C91.0396 319.613 91.858 318.412 92.6558 317.217C98.5405 308.437 103.42 300.008 103.98 294.973C104.653 288.945 106.015 279.621 107.399 270.717C108.29 264.932 109.191 259.323 109.911 254.92C110.781 249.57 111.382 245.989 111.382 245.989C111.382 245.989 82.8393 243.138 78.8402 245.937H78.835C78.7203 246.003 78.6207 246.093 78.5431 246.2C78.4654 246.307 78.4113 246.429 78.3844 246.558C77.9492 249.59 80.2803 277.769 81.2438 289.152V289.157C81.4925 292.076 81.6531 293.887 81.6531 293.887C81.6531 293.887 80.0213 296.065 77.6281 299.558C75.1882 303.123 71.9506 308.054 68.8477 313.435Z" fill="#D0CDE1"></path>
          <path d="M146.464 287.359L149.187 308.576L173.152 298.239L180.777 314.016L141.562 328.704C141.562 328.704 134.482 291.167 146.464 287.359Z" fill="#D0CDE1"></path>
          <path d="M143.596 237.157C143.596 237.157 145.723 234.863 145.507 231.991C145.366 230.357 145.47 228.712 145.818 227.109C145.818 227.109 145.152 222.408 144.169 219.684C143.186 216.959 144.015 216.011 139.79 214.523C135.564 213.036 138.254 207.656 125.797 211.944C125.323 212.422 124.718 212.749 124.059 212.884C123.399 213.018 122.714 212.955 122.09 212.701C119.791 211.86 118.405 215.016 118.405 215.016C118.405 215.016 116.97 213.841 116.165 215.063C115.36 216.285 111.467 213.499 110.039 222.391C108.612 231.283 113.513 239.212 113.513 239.212C113.513 239.212 114.2 224.983 122.291 224.725C130.381 224.467 139.53 221.406 140.665 227.398C141.258 230.754 142.241 234.03 143.596 237.157Z" fill="#2F2E41"></path>
          <path d="M193.431 255.144C193.694 254.913 200.055 249.412 214.912 244.082C228.542 239.192 252.223 233.557 287.635 234.486C354.718 236.245 398.619 199.868 399.054 199.5L400.172 200.406C400.061 200.499 388.887 209.844 369.498 218.825C343.789 230.716 315.31 236.625 287.4 235.859C220.431 234.102 194.826 255.808 194.575 256.027L193.431 255.144Z" fill="#3F3D56"></path>
          <path d="M235.332 117.236C235.619 117.232 242.507 117.183 254.327 121.963C265.171 126.348 282.388 135.829 302.822 156.096C341.534 194.491 388.17 195.186 388.636 195.188L388.783 196.399C388.665 196.398 376.746 196.277 360.171 191.357C338.203 184.823 317.991 172.856 301.904 156.86C263.258 118.531 235.781 118.443 235.508 118.446L235.332 117.236Z" fill="#3F3D56"></path>
          <path d="M196.304 142.978C196.293 143.111 195.98 146.3 193.192 151.536C190.635 156.34 185.409 163.844 175.035 172.311C155.384 188.352 152.79 209.896 152.766 210.112L152.199 210.121C152.205 210.066 152.842 204.557 155.926 197.128C160.02 187.282 166.542 178.513 174.727 171.849C194.345 155.836 195.724 143.127 195.736 143.001L196.304 142.978Z" fill="#3F3D56"></path>
          <path d="M179 135C178.378 135 177.749 134.99 177.132 134.971L177.146 134.523C178.032 134.55 178.936 134.558 179.827 134.546L179.833 134.994C179.556 134.998 179.278 135 179 135ZM182.532 134.896L182.506 134.448C183.393 134.396 184.292 134.322 185.178 134.229L185.224 134.676C184.332 134.769 183.427 134.843 182.532 134.896H182.532ZM174.435 134.826C173.54 134.757 172.635 134.668 171.747 134.559L171.801 134.113C172.683 134.221 173.581 134.311 174.469 134.379L174.435 134.826ZM187.903 134.333L187.836 133.889C188.718 133.755 189.607 133.6 190.477 133.427L190.564 133.867C189.687 134.041 188.792 134.198 187.904 134.333H187.903ZM169.074 134.169C168.19 134.019 167.297 133.847 166.422 133.656L166.517 133.218C167.386 133.407 168.271 133.578 169.149 133.726L169.074 134.169ZM193.201 133.28L193.093 132.844C193.959 132.63 194.829 132.394 195.68 132.141L195.808 132.572C194.95 132.826 194.073 133.064 193.201 133.28ZM163.796 133.023C162.929 132.792 162.056 132.538 161.202 132.268L161.337 131.84C162.185 132.108 163.051 132.36 163.911 132.589L163.796 133.023ZM198.379 131.744L198.232 131.32C199.072 131.028 199.916 130.712 200.743 130.381L200.909 130.798C200.077 131.131 199.225 131.449 198.379 131.744H198.379ZM158.639 131.392C157.797 131.083 156.949 130.749 156.12 130.399L156.294 129.986C157.117 130.332 157.958 130.664 158.794 130.971L158.639 131.392ZM203.388 129.739L203.202 129.331C204.009 128.964 204.82 128.573 205.612 128.168L205.816 128.568C205.018 128.976 204.201 129.37 203.388 129.739H203.388ZM153.651 129.292C152.841 128.906 152.028 128.496 151.236 128.072L151.447 127.676C152.234 128.097 153.04 128.504 153.844 128.887L153.651 129.292ZM208.188 127.285L207.966 126.896C208.74 126.454 209.512 125.99 210.261 125.517L210.501 125.896C209.746 126.373 208.968 126.841 208.188 127.285ZM148.88 126.743C148.11 126.285 147.339 125.802 146.588 125.307L146.835 124.933C147.58 125.423 148.345 125.903 149.109 126.357L148.88 126.743ZM212.748 124.401L212.491 124.033C213.219 123.525 213.946 122.992 214.651 122.45L214.925 122.805C214.214 123.351 213.482 123.888 212.748 124.401ZM144.365 123.769C143.641 123.243 142.917 122.692 142.214 122.131L142.494 121.781C143.192 122.337 143.91 122.884 144.628 123.406L144.365 123.769ZM217.027 121.112L216.738 120.769C217.417 120.196 218.093 119.599 218.747 118.994L219.051 119.324C218.392 119.933 217.712 120.535 217.027 121.112ZM140.142 120.397C139.467 119.807 138.797 119.192 138.15 118.571L138.461 118.247C139.103 118.864 139.768 119.474 140.437 120.06L140.142 120.397ZM220.992 117.445L220.673 117.13C221.298 116.495 221.918 115.839 222.512 115.179L222.846 115.479C222.246 116.144 221.623 116.806 220.992 117.445ZM136.244 116.657C135.626 116.006 135.015 115.334 134.428 114.658L134.767 114.364C135.349 115.035 135.955 115.702 136.57 116.348L136.244 116.657ZM224.608 113.431L224.262 113.146C224.827 112.458 225.384 111.748 225.917 111.035L226.276 111.304C225.739 112.022 225.178 112.738 224.608 113.431ZM132.705 112.579C132.149 111.877 131.602 111.152 131.079 110.425L131.443 110.163C131.962 110.884 132.505 111.604 133.057 112.301L132.705 112.579ZM227.845 109.103L227.474 108.851C227.974 108.114 228.464 107.356 228.93 106.597L229.313 106.832C228.843 107.596 228.349 108.36 227.845 109.103ZM129.553 108.199C129.064 107.449 128.585 106.678 128.13 105.906L128.517 105.678C128.968 106.444 129.443 107.21 129.928 107.953L129.553 108.199ZM230.675 104.495L230.283 104.278C230.713 103.499 231.132 102.698 231.527 101.899L231.929 102.098C231.531 102.903 231.109 103.709 230.675 104.495ZM126.815 103.552C126.396 102.761 125.991 101.949 125.609 101.14L126.015 100.948C126.394 101.752 126.796 102.557 127.211 103.342L126.815 103.552ZM233.071 99.6445L232.66 99.4644C233.018 98.6479 233.361 97.8117 233.681 96.9792L234.1 97.14C233.778 97.9791 233.431 98.8217 233.071 99.6445ZM124.515 98.6764C124.171 97.8509 123.842 97.0064 123.536 96.166L123.958 96.0126C124.261 96.8467 124.588 97.6846 124.929 98.5038L124.515 98.6764ZM235.011 94.59L234.585 94.4489C234.865 93.6052 235.13 92.7429 235.371 91.8857L235.803 92.007C235.56 92.8709 235.293 93.74 235.011 94.59V94.59ZM122.672 93.6068C122.405 92.7517 122.154 91.8782 121.926 91.0102L122.36 90.8963C122.586 91.7577 122.835 92.6246 123.1 93.4731L122.672 93.6068ZM236.474 89.3904L236.037 89.2887C236.238 88.424 236.421 87.5409 236.583 86.6644L237.024 86.7455C236.861 87.629 236.676 88.5187 236.474 89.3904V89.3904ZM121.302 88.3822C121.115 87.5059 120.945 86.6132 120.798 85.7283L121.241 85.6547C121.387 86.533 121.555 87.4189 121.74 88.2884L121.302 88.3822ZM237.451 84.0787L237.007 84.0178C237.127 83.139 237.229 82.243 237.31 81.3544L237.757 81.3948C237.676 82.2903 237.573 83.1932 237.451 84.0787V84.0787ZM120.417 83.0543C120.312 82.1661 120.225 81.2616 120.159 80.3657L120.607 80.3329C120.672 81.2221 120.758 82.1197 120.863 83.0012L120.417 83.0543ZM237.939 78.7001L237.491 78.68C237.531 77.7909 237.551 76.8892 237.551 76H238C238 76.896 237.98 77.8045 237.939 78.7001V78.7001ZM120.023 77.6678C120.008 77.1177 120 76.5564 120 76C120 75.6547 120.003 75.3101 120.009 74.9662L120.458 74.974C120.452 75.3154 120.449 75.6574 120.449 76C120.449 76.5523 120.457 77.1094 120.472 77.6556L120.023 77.6678ZM237.548 75.3741C237.539 74.4845 237.509 73.5829 237.46 72.6941L237.908 72.6691C237.957 73.5647 237.987 74.4731 237.997 75.3693L237.548 75.3741ZM120.564 72.2955L120.116 72.2675C120.172 71.371 120.25 70.4656 120.346 69.5762L120.792 69.6245C120.696 70.5072 120.62 71.4057 120.564 72.2955ZM237.25 70.0219C237.16 69.1374 237.049 68.2425 236.919 67.3618L237.362 67.2963C237.493 68.1837 237.606 69.0854 237.696 69.9766L237.25 70.0219ZM121.141 66.9669L120.698 66.8983C120.835 66.0108 120.995 65.1162 121.172 64.2391L121.612 64.328C121.436 65.1984 121.278 66.0862 121.141 66.9669ZM236.466 64.7201C236.295 63.8449 236.102 62.9638 235.892 62.1016L236.328 61.9955C236.539 62.8644 236.734 63.7522 236.906 64.634L236.466 64.7201ZM122.204 61.7137L121.769 61.6046C121.987 60.7356 122.228 59.8594 122.486 59.0002L122.916 59.1292C122.66 59.9819 122.42 60.8514 122.204 61.7137ZM235.198 59.5122C234.948 58.6579 234.674 57.7986 234.385 56.9577L234.809 56.8118C235.101 57.6591 235.376 58.5252 235.629 59.386L235.198 59.5122ZM123.748 56.5734L123.325 56.4246C123.623 55.5765 123.945 54.7242 124.282 53.8916L124.698 54.0599C124.364 54.886 124.044 55.7318 123.748 56.5734H123.748ZM233.455 54.4434C233.128 53.6177 232.778 52.789 232.414 51.9803L232.823 51.7961C233.19 52.611 233.543 53.446 233.873 54.278L233.455 54.4434ZM125.762 51.5938L125.354 51.4064C125.729 50.5904 126.128 49.772 126.54 48.9741L126.939 49.1798C126.53 49.9717 126.134 50.7838 125.762 51.5938ZM231.26 49.5667C230.858 48.7747 230.433 47.981 229.995 47.2079L230.386 46.9869C230.827 47.7659 231.255 48.5657 231.66 49.3639L231.26 49.5667ZM128.225 46.8232L127.836 46.5993C128.283 45.8222 128.755 45.0442 129.239 44.2873L129.617 44.5287C129.137 45.28 128.669 46.052 128.225 46.8232ZM228.624 44.9085C228.15 44.1538 227.653 43.4019 227.148 42.6737L227.517 42.418C228.026 43.1518 228.526 43.9094 229.004 44.6699L228.624 44.9085ZM131.113 42.301L130.746 42.0424C131.263 41.3089 131.804 40.5777 132.354 39.8692L132.708 40.1441C132.163 40.8474 131.626 41.573 131.113 42.301ZM225.572 40.508C225.031 39.7999 224.468 39.0959 223.898 38.4156L224.242 38.1274C224.816 38.8129 225.384 39.5222 225.928 40.2357L225.572 40.508ZM134.4 38.063L134.058 37.7721C134.639 37.0903 135.244 36.4117 135.856 35.7552L136.184 36.0612C135.576 36.7129 134.976 37.3864 134.4 38.063ZM222.13 36.4011C221.528 35.7451 220.902 35.0949 220.272 34.4687L220.589 34.1504C221.224 34.7815 221.853 35.4365 222.461 36.0975L222.13 36.4011ZM138.058 34.1434L137.744 33.8227C138.385 33.195 139.049 32.5745 139.717 31.9784L140.016 32.3131C139.353 32.9046 138.694 33.5205 138.058 34.1434ZM218.328 32.6225C217.668 32.0234 216.986 31.4326 216.302 30.8664L216.588 30.5207C217.277 31.0911 217.964 31.6865 218.63 32.2901L218.328 32.6225ZM142.055 30.5739L141.772 30.226C142.465 29.6609 143.183 29.1035 143.903 28.5694L144.17 28.9298C143.455 29.46 142.743 30.013 142.055 30.5739ZM214.197 29.2039C213.484 28.6673 212.751 28.1407 212.017 27.6389L212.271 27.2687C213.01 27.7742 213.748 28.3047 214.467 28.8455L214.197 29.2039ZM146.358 27.3845L146.108 27.0122C146.85 26.5125 147.615 26.0232 148.38 25.5576L148.613 25.941C147.854 26.403 147.095 26.8887 146.358 27.3845ZM209.768 26.175C209.01 25.7058 208.231 25.2484 207.454 24.8152L207.672 24.4233C208.456 24.8597 209.24 25.3208 210.004 25.7934L209.768 26.175ZM150.932 24.6024L150.716 24.2087C151.502 23.7788 152.308 23.3617 153.111 22.9687L153.308 23.3718C152.511 23.7617 151.711 24.1756 150.932 24.6024L150.932 24.6024ZM205.079 23.5629C204.281 23.1651 203.463 22.7809 202.649 22.4208L202.83 22.0105C203.651 22.3733 204.475 22.7605 205.28 23.1613L205.079 23.5629ZM155.737 22.2518L155.559 21.8402C156.38 21.4843 157.22 21.143 158.055 20.8256L158.215 21.2452C157.386 21.56 156.552 21.8987 155.737 22.2518ZM200.167 21.3916C199.336 21.0695 198.486 20.7621 197.64 20.4782L197.783 20.0527C198.635 20.3389 199.492 20.6486 200.329 20.9734L200.167 21.3916ZM160.742 20.3514L160.602 19.9251C161.455 19.6456 162.325 19.3823 163.188 19.143L163.308 19.5752C162.451 19.8128 161.588 20.074 160.742 20.3514ZM195.079 19.6843C194.224 19.4404 193.351 19.2132 192.485 19.0091L192.588 18.5725C193.461 18.7781 194.34 19.0071 195.202 19.2528L195.079 19.6843ZM165.907 18.9181L165.807 18.4807C166.681 18.281 167.571 18.0991 168.453 17.9401L168.533 18.3815C167.658 18.5394 166.774 18.72 165.907 18.9181ZM189.863 18.4544C188.989 18.2905 188.099 18.1446 187.218 18.0208L187.28 17.5765C188.168 17.7013 189.065 17.8483 189.946 18.0134L189.863 18.4544ZM171.181 17.9662L171.122 17.5215C172.01 17.403 172.913 17.3033 173.806 17.2255L173.845 17.6725C172.959 17.7498 172.063 17.8486 171.181 17.9662ZM184.555 17.7088C183.671 17.6256 182.772 17.5614 181.881 17.5183L181.903 17.0701C182.8 17.1136 183.707 17.1782 184.597 17.2621L184.555 17.7088ZM176.521 17.5004L176.502 17.0521C177.326 17.0177 178.167 17.0002 179 17L179.203 17.0003L179.202 17.449L179 17.4487C178.173 17.4489 177.339 17.4663 176.521 17.5004Z" fill="#3F3D56"></path>
        </svg>


