<svg id="Capa_1" enable-background="new 0 0 512 512" height="512" viewBox="0 0 512 512" width="512" xmlns="http://www.w3.org/2000/svg"><g><path d="m503.799 368.394c-3.403-12.673-10.476-23.729-20.305-32.034 11.199-42.923 9.891-87.721-3.959-130.495-15.572-48.094-45.539-89.011-86.663-118.327-9.006-6.42-21.521-4.339-27.953 4.649-6.433 8.987-4.347 21.477 4.658 27.896 34.078 24.292 58.913 58.208 71.823 98.079 10.946 33.806 12.45 69.122 4.537 103.146-23.379-1.369-46.69 10.143-59.178 31.697-8.535 14.731-10.805 31.895-6.393 48.329 4.416 16.445 14.993 30.188 29.783 38.697 30.376 17.477 69.573 7.213 87.257-23.309 8.536-14.73 10.806-31.894 6.393-48.328zm-41.087 28.309c-6.566 11.332-21.167 15.226-32.546 8.679 0 0 0 0-.001 0-5.508-3.169-9.445-8.282-11.088-14.399-1.639-6.105-.795-12.482 2.377-17.956 10.533-18.179 38.14-14.742 43.635 5.72 1.638 6.105.794 12.482-2.377 17.956zm-422.494-120.06c.664.064 1.322.096 1.975.096 10.188 0 18.906-7.722 19.919-18.052 4.073-41.547 21.13-79.935 49.327-111.011 23.922-26.364 53.882-45.329 87.433-55.514 10.504 20.865 32.159 35.226 57.128 35.226 35.229 0 63.889-28.573 63.889-63.694s-28.66-63.694-63.889-63.694c-31.281 0-57.365 22.535-62.822 52.172-42.908 11.79-81.193 35.318-111.446 68.659-34.013 37.485-54.589 83.808-59.506 133.962-1.078 10.992 6.978 20.774 17.992 21.85zm215.782-236.647c13.13 0 23.812 10.631 23.812 23.699s-10.682 23.698-23.812 23.698c-13.136 0-23.813-10.636-23.813-23.699 0-13.068 10.683-23.698 23.813-23.698zm80.331 414.663c-38.159 17.267-80.064 21.741-121.184 12.944-34.848-7.456-66.288-23.807-91.902-47.635 3.732-5.647 6.583-11.909 8.389-18.633 4.413-16.434 2.142-33.598-6.393-48.33-17.614-30.399-56.757-40.856-87.257-23.308-14.79 8.509-25.368 22.252-29.783 38.697-4.412 16.434-2.142 33.598 6.394 48.33 15.673 27.049 48.31 38.256 76.762 28.14 31.701 31.135 71.29 52.41 115.39 61.846 48.622 10.402 99.219 5.602 146.134-15.624 10.079-4.56 14.546-16.411 9.976-26.471-4.571-10.058-16.447-14.515-26.526-9.956zm-243.409-63.676c-5.423 20.197-32.998 24.078-43.634 5.721-3.172-5.475-4.016-11.852-2.377-17.957 1.642-6.117 5.58-11.23 11.088-14.399 11.372-6.543 25.975-2.662 32.546 8.678 3.172 5.475 4.017 11.852 2.377 17.957z"/></g></svg>