<svg id="user" width="80" height="56" viewBox="0 0 80 56" fill="none" xmlns="http://www.w3.org/2000/svg" aria-hidden="true"><path d="M79.911 0H0v55.503h79.911V0z" fill="#606BB7"></path>
          <path d="M39.956 10.83a16.937 16.937 0 00-15.642 10.446 16.914 16.914 0 003.67 18.44 16.932 16.932 0 0018.45 3.67A16.929 16.929 0 0056.887 27.75a16.967 16.967 0 00-4.973-11.95 16.985 16.985 0 00-11.957-4.971zm0 5.076a5.081 5.081 0 014.692 3.134 5.074 5.074 0 01-3.701 6.922 5.082 5.082 0 01-6.07-4.98 5.092 5.092 0 015.079-5.076zm0 24.44a12.338 12.338 0 01-10.159-5.419c.082-3.384 6.773-5.247 10.159-5.247 3.386 0 10.076 1.863 10.158 5.247a12.352 12.352 0 01-10.158 5.418z" fill="#fff"></path>
        </svg>



