<svg id="article" width="56" height="65" viewBox="0 0 56 65" fill="none" xmlns="http://www.w3.org/2000/svg" aria-hidden="true"><path d="M53.957 0H2.043A2.053 2.053 0 000 2.063v60.874C0 64.077.915 65 2.043 65h51.914A2.053 2.053 0 0056 62.937V2.063C56 .923 55.085 0 53.957 0z" fill="#fff"></path>
          <path opacity=".1" d="M53.957 0H2.043A2.053 2.053 0 000 2.063v60.874C0 64.077.915 65 2.043 65h51.914A2.053 2.053 0 0056 62.937V2.063C56 .923 55.085 0 53.957 0z" fill="#5A5773"></path>
          <path d="M51.969 4H6.03A2.023 2.023 0 004 6.015v52.97C4 60.098 4.91 61 6.031 61H51.97A2.023 2.023 0 0054 58.985V6.015C54 4.902 53.09 4 51.969 4z" fill="#fff"></path>
          <path d="M43.163 15H12.837C11.822 15 11 15.841 11 16.878v8.244c0 1.037.822 1.878 1.837 1.878h30.326C44.178 27 45 26.159 45 25.122v-8.244C45 15.841 44.178 15 43.163 15zM44 32H12v2h32v-2zM50 37H6v2h44v-2zM50 42H6v2h44v-2zM50 48H6v2h44v-2z" fill="#606BB7"></path>
        </svg>